<?xml version="1.0" encoding="UTF-8"?>
<svg id="Layer_2" data-name="Layer 2" xmlns="http://www.w3.org/2000/svg" xmlns:xlink="http://www.w3.org/1999/xlink" viewBox="0 0 412.55 116.42">
  <defs>
    <style>
      .cls-1 {
        fill: url(#linear-gradient);
      }

      .cls-1, .cls-2, .cls-3, .cls-4 {
        stroke-width: 0px;
      }

      .cls-2 {
        fill: #007f41;
      }

      .cls-3 {
        fill: url(#linear-gradient-2);
      }

      .cls-4 {
        fill: url(#linear-gradient-3);
      }
    </style>
    <linearGradient id="linear-gradient" x1="-215.61" y1="505.45" x2="-214.87" y2="505.45" gradientTransform="translate(-11597.23 -27945.62) rotate(-179.45) scale(55.21 -55.21)" gradientUnits="userSpaceOnUse">
      <stop offset=".1" stop-color="#ee7800"/>
      <stop offset=".26" stop-color="#eb7201"/>
      <stop offset=".46" stop-color="#e56106"/>
      <stop offset=".69" stop-color="#db460f"/>
      <stop offset=".94" stop-color="#cc211a"/>
      <stop offset="1" stop-color="#c9171e"/>
    </linearGradient>
    <linearGradient id="linear-gradient-2" x1="-227.07" y1="510.8" x2="-226.33" y2="510.8" gradientTransform="translate(11019.49 25376.65) rotate(.55) scale(49.41 -49.41)" gradientUnits="userSpaceOnUse">
      <stop offset="0" stop-color="#21aee5"/>
      <stop offset=".55" stop-color="#0f7ec3"/>
      <stop offset="1" stop-color="#0055a7"/>
    </linearGradient>
    <linearGradient id="linear-gradient-3" x1="-225.15" y1="510.16" x2="-224.41" y2="510.16" gradientTransform="translate(16129.16 37487.61) rotate(.55) scale(73.03 -73.03)" gradientUnits="userSpaceOnUse">
      <stop offset="0" stop-color="#8fc31f"/>
      <stop offset=".14" stop-color="#89c021"/>
      <stop offset=".31" stop-color="#78ba26"/>
      <stop offset=".52" stop-color="#5db030"/>
      <stop offset=".73" stop-color="#37a23d"/>
      <stop offset=".96" stop-color="#08904e"/>
      <stop offset="1" stop-color="#008d51"/>
    </linearGradient>
  </defs>
  <g id="_레이어_1" data-name="레이어 1">
    <g>
      <g>
        <path class="cls-2" d="m251.35,66.11h-18.62v-7.57h-8.32v.59c0,1.28.52,2.15,1.57,2.62v4.36h-18.67c-.82,0-1.5.28-2.06.85-.57.56-.85,1.25-.85,2.06s.28,1.56.85,2.13c.56.56,1.24.84,2.06.84h44.04c.81,0,1.5-.28,2.06-.84.56-.56.84-1.27.84-2.13s-.28-1.5-.84-2.06c-.57-.56-1.25-.85-2.06-.85Z"/>
        <path class="cls-2" d="m245.71,83.56h-25.13c-1.16,0-1.74-.58-1.74-1.74v-6.4h-8.49v.58c0,1.28.54,2.13,1.63,2.56v4.83c0,4,2.23,5.99,6.68,5.99h27.06c.78,0,1.46-.28,2.06-.85.6-.56.9-1.25.9-2.07,0-.77-.3-1.45-.9-2.03-.61-.58-1.29-.88-2.06-.88Z"/>
        <path class="cls-2" d="m210.51,62.15c.55.04,1.11-.02,1.69-.17,2.44-.74,4.52-1.59,6.25-2.56,1.73-.97,3.27-1.96,4.63-2.96,2.64-1.83,4.77-3.98,6.4-6.46,1.63,2.48,3.76,4.63,6.4,6.46,1.36,1,2.91,1.99,4.65,2.96,1.75.97,3.83,1.83,6.23,2.56.58.15,1.14.21,1.68.17,1.02-.08,1.75-.58,2.22-1.51.43-.89.43-1.77,0-2.63-.39-.65-1.05-1.14-1.98-1.45-2.37-.74-4.43-1.63-6.2-2.68-1.76-1.05-3.27-2.14-4.51-3.26-3.37-3.02-5.09-6.61-5.17-10.76v-.7h-8.38v.64c0,.47.08.87.23,1.22.16.35.46.76.93,1.22,0,2.6-1.55,5.39-4.65,8.38-1.24,1.13-2.71,2.21-4.42,3.26-1.71,1.04-3.78,1.94-6.22,2.68-.93.31-1.59.8-1.98,1.45-.43.85-.43,1.74,0,2.63.46.93,1.21,1.43,2.21,1.51Z"/>
        <path class="cls-2" d="m301.38,53.66h-4.36v-14.48h-7.97v.64c0,1.24.55,2.09,1.63,2.56v44.44c0,.85.31,1.59.93,2.21.62.62,1.37.93,2.27.93s1.59-.31,2.21-.93c.62-.62.93-1.36.93-2.21v-27.17h4.36v27.11c0,.86.32,1.6.96,2.25.64.64,1.38.96,2.24.96.9,0,1.66-.32,2.3-.96.64-.64.96-1.39.96-2.25v-47.58h-6.46v14.48Z"/>
        <path class="cls-2" d="m285.15,43.83h-8.44v-5h-7.1v5h-8.84c-.86,0-1.56.28-2.1.84-.55.56-.82,1.23-.82,2.01s.27,1.44.82,2c.54.57,1.24.84,2.1.84h1.96c-.93,1.06-1.7,2.25-2.32,3.58-.78,1.69-1.16,3.46-1.16,5.32s.37,3.69,1.11,5.36c.74,1.66,1.74,3.14,3.02,4.42,1.21,1.24,2.64,2.23,4.31,2.97,1.67.73,3.47,1.1,5.41,1.1s3.67-.37,5.32-1.1c1.65-.73,3.09-1.73,4.33-2.97,1.28-1.28,2.28-2.75,3-4.42.72-1.67,1.07-3.46,1.07-5.36s-.37-3.63-1.13-5.32c-.59-1.33-1.36-2.52-2.29-3.58h1.74c.77,0,1.46-.28,2.03-.84.58-.56.87-1.23.87-2s-.29-1.45-.87-2.01c-.58-.56-1.26-.84-2.03-.84Zm-5.23,17.62c-.39,1.02-.91,1.88-1.58,2.62-.69.78-1.5,1.38-2.42,1.8-.91.43-1.85.64-2.82.64-1.05,0-2.03-.21-2.94-.64-.9-.42-1.7-1.02-2.35-1.8-.66-.74-1.17-1.6-1.54-2.62-.37-1.01-.56-2.07-.56-3.2s.19-2.19.56-3.2c.37-1.01.89-1.88,1.54-2.62.66-.78,1.45-1.38,2.35-1.81.91-.42,1.9-.63,2.94-.63.97,0,1.91.21,2.82.63.91.43,1.72,1.03,2.42,1.81.66.74,1.18,1.61,1.58,2.62.38,1.01.58,2.07.58,3.2s-.2,2.19-.58,3.2Z"/>
        <path class="cls-2" d="m361.88,77.22h-18.61v-8.32h7.8c4.38,0,6.57-1.98,6.57-5.93v-22.1h-8.32v.57c0,1.28.51,2.14,1.51,2.56v5h-21.87v-8.14h-8.38v.57c0,1.28.53,2.14,1.57,2.56v18.96c0,3.96,2.17,5.93,6.51,5.93h7.86v8.32h-18.67c-.81,0-1.51.27-2.06.82-.57.54-.85,1.24-.85,2.09s.28,1.5.85,2.07c.56.56,1.25.84,2.06.84h44.03c.82,0,1.51-.28,2.07-.84.56-.57.85-1.26.85-2.07,0-.85-.28-1.55-.85-2.09-.56-.55-1.24-.82-2.07-.82Zm-31.17-14.08c-1.17,0-1.75-.6-1.75-1.8v-6.46h21.87v6.46c0,1.21-.58,1.8-1.74,1.8h-18.38Z"/>
        <path class="cls-2" d="m404.23,39.18v.64c0,1.24.52,2.09,1.57,2.56v10.23h-9.48c-.11-.28-.22-.57-.35-.84-.58-1.18-1.42-2.27-2.48-3.28h3.82c.73,0,1.36-.27,1.89-.79.52-.52.79-1.15.79-1.89,0-.7-.26-1.33-.79-1.89-.53-.57-1.16-.84-1.89-.84h-10.01v-4.71h-7.45v4.71h-10c-.7,0-1.32.28-1.86.84-.55.56-.81,1.19-.81,1.89,0,.74.27,1.37.81,1.89.54.52,1.16.79,1.86.79h3.64c-1.06,1.01-1.91,2.1-2.51,3.28-.68,1.34-1.01,2.84-1.01,4.51s.34,3.24,1.01,4.68c.68,1.46,1.66,2.75,2.94,3.87,1.2,1.09,2.63,1.94,4.28,2.56,1.65.62,3.42.93,5.32.93s3.61-.31,5.23-.93c1.63-.63,3.06-1.48,4.31-2.56,1.28-1.12,2.25-2.41,2.91-3.87.41-.92.68-1.87.84-2.87h8.99v7.44c0,.93.33,1.73.99,2.39.66.66,1.45.98,2.38.98s1.72-.33,2.38-.98c.66-.66.99-1.46.99-2.39v-26.35h-8.32Zm-15.85,21.73c-1.26,1.29-2.88,1.94-4.86,1.94s-3.67-.65-4.94-1.94c-1.28-1.31-1.92-2.87-1.92-4.69s.64-3.37,1.92-4.66c1.27-1.28,2.92-1.92,4.94-1.92s3.6.64,4.86,1.92c1.25,1.29,1.89,2.84,1.89,4.66s-.64,3.38-1.89,4.69Z"/>
        <path class="cls-2" d="m376.48,71.46c0,1.28.53,2.13,1.58,2.56v9.37c0,4,2.19,5.99,6.57,5.99h21.41c4.34,0,6.51-1.99,6.51-5.99v-12.51h-36.07v.58Zm8.33,4.89h21.05v5.76c0,1.16-.62,1.74-1.86,1.74h-17.34c-1.24,0-1.86-.58-1.86-1.74v-5.76Z"/>
        <g>
          <path class="cls-2" d="m125.36,38.4h-19.16v52.39h19.17c15.82,0,27.3-10.98,27.3-26.1s-10.97-26.3-27.3-26.29m18.05,26.23c0,11.02-7.31,18.13-18.3,18.13h-9.66v-36.33h9.66c11.32,0,18.3,6.84,18.3,18.2Z"/>
          <path class="cls-2" d="m189.99,63.68c3.42-2.33,5.67-6.96,5.67-11.84,0-8.42-6.76-13.45-18.07-13.44h-20.78v52.39h21.14c12.78,0,20.41-5.6,20.41-14.96,0-5.61-2.74-9.59-8.38-12.15m-15.85-3.78c-1.7.41-2.72,1.44-2.99,3.03-.21,1.21.07,2.49.73,3.42.53.73,1.27,1.21,2.13,1.34,1.2.2,2.52.26,3.91.32,4.12.19,8.49.37,10.44,4.02,1.15,2.18.98,5-.43,7.04-1.46,2.11-4.32,3.39-8.51,3.63-.54.03-1.09.05-1.69.05h-11.66v-36.33s10.57,0,10.57,0c6.96,0,9.77,2,9.77,6.25,0,2.33-.89,4.48-2.65,5.75-1.58,1.15-3.89,1.18-6.11,1.2-.99.01-2.4.03-3.5.27Z"/>
        </g>
      </g>
      <g>
        <path class="cls-1" d="m28.58,46.61c-3.27-3.01-7.25-5.49-12.05-7.18-2.41-.85-6.38-2.09-9.77-2.09-2.91,0-5.4.93-6.03,3.83-1.21,5.53-.64,53.09-.21,58.6.3,4.05,2.01,6.41,6.75,6.31,33.07-.53,41.74-40.62,21.32-59.48Z"/>
        <path class="cls-3" d="m66.46,8.41c-2.97-2.73-6.62-4.98-10.94-6.51-2.2-.79-5.8-1.9-8.88-1.9-2.66,0-4.91.86-5.5,3.49-1.09,5.01-.57,48.2-.19,53.21.29,3.66,1.82,5.8,6.13,5.74,30.03-.5,37.92-36.9,19.37-54.02Z"/>
        <path class="cls-4" d="m79.73,48.55c-3.73-3.44-8.32-6.27-13.75-8.18-2.77-.99-7.31-2.39-11.16-2.39-3.34,0-6.19,1.06-6.91,4.38-1.39,6.31-.72,60.56-.23,66.85.37,4.62,2.28,7.29,7.69,7.21,37.74-.6,47.67-46.34,24.36-67.87Z"/>
      </g>
    </g>
  </g>
</svg>